HIERARCHY
ROOT Hip
{
	OFFSET 0 1.131 0.0052
	CHANNELS 6 Xposition Yposition Zposition Xrotation Yrotation Zrotation
	JOINT Abdomen
	{
		OFFSET 0 -0.047353 -0.05
		CHANNELS 3 Xrotation Zrotation Yrotation
		JOINT Chest
		{
			OFFSET 0 0.132153 0.007439
			CHANNELS 3 Xrotation Zrotation Yrotation
			JOINT Neck
			{
				OFFSET 0 0.3078 0.006161
				CHANNELS 3 Xrotation Zrotation Yrotation
				JOINT Head_comp
				{
					OFFSET 0 0.0884 0.013
					CHANNELS 3 Xrotation Yrotation Zrotation
					End Site
					{
						OFFSET -0 0.156 0.0624
					}
				}
			}
			JOINT Left_Collar
			{
				OFFSET 0.02282 0.250342 0.017193
				CHANNELS 2 Yrotation Zrotation
				JOINT Left_Shoulder
				{
					OFFSET 0.15421 0 0
					CHANNELS 3 Xrotation Yrotation Zrotation
					JOINT Left_Forearm
					{
						OFFSET 0.265212 0 0
						CHANNELS 2 Yrotation Xrotation
						JOINT Left_Hand
						{
							OFFSET 0.27571 0 0
							CHANNELS 2 Zrotation Yrotation
							JOINT L1ProxPhalanx
							{
								OFFSET 0.014142 0.001733 0.014142
								CHANNELS 3 Yrotation Zrotation Xrotation
								JOINT L1MidPhalanx
								{
									OFFSET 0.04 0 0
									CHANNELS 1 Zrotation
									JOINT L1DistPhalanx
									{
										OFFSET 0.035 0 0
										CHANNELS 1 Zrotation
										End Site
										{
											OFFSET 0.029 -0 -0
										}
									}
								}
							}
							JOINT L2ProxPhalanx
							{
								OFFSET 0.0821037 0.001578 0.0219996
								CHANNELS 2 Yrotation Zrotation
								JOINT L2MidPhalanx
								{
									OFFSET 0.04 0 0
									CHANNELS 1 Zrotation
									JOINT L2DistPhalanx
									{
										OFFSET 0.028 0 0
										CHANNELS 1 Zrotation
										End Site
										{
											OFFSET 0.02 -0 -0
										}
									}
								}
							}
							JOINT L3ProxPhalanx
							{
								OFFSET 0.083 0 0
								CHANNELS 2 Yrotation Zrotation
								JOINT L3MidPhalanx
								{
									OFFSET 0.053 0 0
									CHANNELS 1 Zrotation
									JOINT L3DistPhalanx
									{
										OFFSET 0.03 0 0
										CHANNELS 1 Zrotation
										End Site
										{
											OFFSET 0.023 -0 -0
										}
									}
								}
							}
							JOINT L4ProxPhalanx
							{
								OFFSET 0.077274 -0.000761 -0.0207055
								CHANNELS 2 Yrotation Zrotation
								JOINT L4MidPhalanx
								{
									OFFSET 0.05 0 0
									CHANNELS 1 Zrotation
									JOINT L4DistPhalanx
									{
										OFFSET 0.03 0 0
										CHANNELS 1 Zrotation
										End Site
										{
											OFFSET 0.023 -0 -0
										}
									}
								}
							}
							JOINT L5ProxPhalanx
							{
								OFFSET 0.0675499 -0.001644 -0.039
								CHANNELS 2 Yrotation Zrotation
								JOINT L5MidPhalanx
								{
									OFFSET 0.04 0 0
									CHANNELS 1 Zrotation
									JOINT L5DistPhalanx
									{
										OFFSET 0.021 0 0
										CHANNELS 1 Zrotation
										End Site
										{
											OFFSET 0.022 -0 -0
										}
									}
								}
							}
						}
					}
				}
			}
			JOINT Right_Collar
			{
				OFFSET -0.02282 0.250342 0.017193
				CHANNELS 2 Yrotation Zrotation
				JOINT Right_Shoulder
				{
					OFFSET -0.15421 0 0
					CHANNELS 3 Xrotation Yrotation Zrotation
					JOINT Right_Forearm
					{
						OFFSET -0.265212 0 0
						CHANNELS 2 Yrotation Xrotation
						JOINT Right_Hand
						{
							OFFSET -0.27571 3e-006 0
							CHANNELS 2 Zrotation Yrotation
							JOINT R1ProxPhalanx
							{
								OFFSET -0.014142 0.001733 0.014142
								CHANNELS 3 Yrotation Zrotation Xrotation
								JOINT R1MidPhalanx
								{
									OFFSET -0.04 0 0
									CHANNELS 1 Zrotation
									JOINT R1DistPhalanx
									{
										OFFSET -0.035 0 0
										CHANNELS 1 Zrotation
										End Site
										{
											OFFSET -0.029 -0 -0
										}
									}
								}
							}
							JOINT R2ProxPhalanx
							{
								OFFSET -0.0821037 0.001578 0.0219996
								CHANNELS 2 Yrotation Zrotation
								JOINT R2MidPhalanx
								{
									OFFSET -0.04 0 0
									CHANNELS 1 Zrotation
									JOINT R2DistPhalanx
									{
										OFFSET -0.028 0 0
										CHANNELS 1 Zrotation
										End Site
										{
											OFFSET -0.02 -0 -0
										}
									}
								}
							}
							JOINT R3ProxPhalanx
							{
								OFFSET -0.083 0 0
								CHANNELS 2 Yrotation Zrotation
								JOINT R3MidPhalanx
								{
									OFFSET -0.053 0 0
									CHANNELS 1 Zrotation
									JOINT R3DistPhalanx
									{
										OFFSET -0.03 0 0
										CHANNELS 1 Zrotation
										End Site
										{
											OFFSET -0.023 -0 -0
										}
									}
								}
							}
							JOINT R4ProxPhalanx
							{
								OFFSET -0.077274 -0.000761 -0.0207055
								CHANNELS 2 Yrotation Zrotation
								JOINT R4MidPhalanx
								{
									OFFSET -0.05 0 0
									CHANNELS 1 Zrotation
									JOINT R4DistPhalanx
									{
										OFFSET -0.03 0 0
										CHANNELS 1 Zrotation
										End Site
										{
											OFFSET -0.023 -0 -0
										}
									}
								}
							}
							JOINT R5ProxPhalanx
							{
								OFFSET -0.0675499 -0.001644 -0.039
								CHANNELS 2 Yrotation Zrotation
								JOINT R5MidPhalanx
								{
									OFFSET -0.04 0 0
									CHANNELS 1 Zrotation
									JOINT R5DistPhalanx
									{
										OFFSET -0.021 0 0
										CHANNELS 1 Zrotation
										End Site
										{
											OFFSET -0.022 -0 -0
										}
									}
								}
							}
						}
					}
				}
			}
		}
	}
	JOINT Left_Thigh
	{
		OFFSET 0.1118 -0.1612 -0.0442
		CHANNELS 3 Xrotation Zrotation Yrotation
		JOINT Left_Shin
		{
			OFFSET 0 -0.477856 0
			CHANNELS 1 Xrotation
			JOINT Left_Foot
			{
				OFFSET 0 -0.431952 0
				CHANNELS 2 Xrotation Zrotation
				JOINT Left_Toe
				{
					OFFSET 0 -0.0442 0.119
					CHANNELS 1 Xrotation
					End Site
					{
						OFFSET -0 -0 0.07
					}
				}
			}
		}
	}
	JOINT Right_Thigh
	{
		OFFSET -0.1118 -0.1612 -0.0442
		CHANNELS 3 Xrotation Zrotation Yrotation
		JOINT Right_Shin
		{
			OFFSET 0 -0.477856 0
			CHANNELS 1 Xrotation
			JOINT Right_Foot
			{
				OFFSET 0 -0.431952 0
				CHANNELS 2 Xrotation Zrotation
				JOINT Right_Toe
				{
					OFFSET 0 -0.0442 0.119
					CHANNELS 1 Xrotation
					End Site
					{
						OFFSET -0 -0 0.07
					}
				}
			}
		}
	}
}
MOTION
Frames: 16
Frame Time: 0.009975
-0.0998749 -0.0601143 0.04796 1.6989e-012 4.99049e-008 -5.10952e-006 0 -0 0 0 -0 0 0 -0 0 -0.712757 0.286514 -7.09947e-012 -6.49442 -34.3316 -3.47978 -31.6256 -24.6949 -44.4415 15.4469 21.8899 -6.77563 -60.4791 -76.0931 83.8143 -4.9393 -2.65108 3.79911 -11.8689 -7.85514 -13.2074 -2.40132 0.745361 -4.00853 -4.7002 -5.03825 2.2119 -8.58663 -2.5421 1.49227 4.9448 -37.6831 22.0138 0.107973 4.28688 30.1354 11.3264 66.4663 82.8243 0.317614 -0.314385 0.0919095 37.9386 28.008 73.698 26.2405 28.4472 13.118 18.2167 29.0248 19.6359 0 22.4358 32.6146 28.1246 -8.63175 30.7051 32.2053 23.7634 -7.83088 26.7354 35.1526 30.0193 0.552916 -0.751006 -0.00724735 0.0240216 -0.57689 0.751046 0 0.564322 -0.751004 -0.00739685 2.41484e-006 -0.564276 0.751046 0 
-0.0999279 -0.0601149 0.04809 -1.35469e-012 5.07526e-008 -5.10951e-006 0 -0 0 0 -0 0 0 -0 0 -0.712769 0.28673 -5.14907e-012 -6.49442 -34.3316 -3.47978 -31.6256 -24.6949 -44.4415 15.4469 21.8899 -6.77563 -60.4791 -76.0931 83.8143 -4.9393 -2.65108 3.79911 -11.8689 -7.85514 -13.2074 -2.40132 0.745361 -4.00853 -4.7002 -5.03825 2.2119 -8.58663 -2.5421 1.49227 4.9448 -37.6831 22.0138 0.0461312 4.05796 30.4154 11.263 67.0403 82.7473 0.1357 -0.13432 0.0392681 37.9386 28.008 73.698 26.2405 28.4472 13.118 18.2167 29.0248 19.6359 0 22.4358 32.6146 28.1246 -8.63175 30.7051 32.2053 23.7634 -7.83088 26.7354 35.1526 30.0193 0.561101 -0.747668 -0.00732199 0.0240216 -0.585075 0.747709 0 0.572507 -0.747666 -0.00747083 1.70755e-006 -0.572461 0.747709 0 
-0.0999645 -0.0601152 0.0481703 9.64541e-015 5.13666e-008 -5.1095e-006 0 -0 0 0 -0 0 0 -0 0 -0.712779 0.286923 -2.87846e-012 -6.49442 -34.3316 -3.47978 -31.6256 -24.6949 -44.4415 15.4469 21.8899 -6.77563 -60.4791 -76.0931 83.8143 -4.9393 -2.65108 3.79911 -11.8689 -7.85514 -13.2074 -2.40132 0.745361 -4.00853 -4.7002 -5.03825 2.2119 -8.58663 -2.5421 1.49227 4.9448 -37.6831 22.0138 0.0102952 3.92529 30.5763 11.2287 67.3735 82.7005 0.0302843 -0.0299765 0.00876352 37.9386 28.008 73.698 26.2405 28.4472 13.118 18.2167 29.0248 19.6359 0 22.4358 32.6146 28.1246 -8.63175 30.7051 32.2053 23.7634 -7.83088 26.7354 35.1526 30.0193 0.566161 -0.745368 -0.00736533 0.0240216 -0.590135 0.745409 0 0.577567 -0.745366 -0.0075137 2.41484e-006 -0.57752 0.745409 0 
-0.099981 -0.0601153 0.0481998 -1.22942e-012 5.16531e-008 -5.10949e-006 0 -0 0 0 -0 0 0 -0 0 -0.712784 0.287061 -5.21376e-013 -6.49442 -34.3316 -3.47978 -31.6256 -24.6949 -44.4415 15.4469 21.8899 -6.77563 -60.4791 -76.0931 83.8143 -4.9393 -2.65108 3.79911 -11.8689 -7.85514 -13.2074 -2.40132 0.745361 -4.00853 -4.7002 -5.03825 2.2119 -8.58663 -2.5421 1.49227 4.9448 -37.6831 22.0138 0 3.88717 30.6231 11.2191 67.4677 82.6886 0 0 0 37.9386 28.008 73.698 26.2405 28.4472 13.118 18.2167 29.0248 19.6359 0 22.4358 32.6146 28.1246 -8.63175 30.7051 32.2053 23.7634 -7.83088 26.7354 35.1526 30.0193 0.568018 -0.744324 -0.00737914 0.0240216 -0.591991 0.744365 0 0.579423 -0.744322 -0.00752731 2.41484e-006 -0.579377 0.744365 0 
-0.0999843 -0.0601153 0.0482036 -4.37804e-013 5.16943e-008 -5.10949e-006 0 -0 0 0 -0 0 0 -0 0 -0.712785 0.287108 3.88256e-019 -6.49442 -34.3316 -3.47978 -31.6256 -24.6949 -44.4415 15.4469 21.8899 -6.77563 -60.4791 -76.0931 83.8143 -4.9393 -2.65108 3.79911 -11.8689 -7.85514 -13.2074 -2.40132 0.745361 -4.00853 -4.7002 -5.03825 2.2119 -8.58663 -2.5421 1.49227 4.9448 -37.6831 22.0138 0 3.88717 30.6237 11.2182 67.4665 82.6896 0 0 0 37.9386 28.008 73.698 26.2405 28.4472 13.118 18.2167 29.0248 19.6359 0 22.4358 32.6146 28.1246 -8.63175 30.7051 32.2053 23.7634 -7.83088 26.7354 35.1526 30.0193 0.568256 -0.744116 -0.00738018 0.0240216 -0.592229 0.744158 0 0.579661 -0.744115 -0.0075283 1.70755e-006 -0.579614 0.744158 0 
-0.0999843 -0.0601153 0.0482036 -1.54011e-012 5.16947e-008 -5.10949e-006 0 -0 0 0 -0 0 0 -0 0 -0.712785 0.287111 -0 -6.49442 -34.3316 -3.47978 -31.6256 -24.6949 -44.4415 15.4469 21.8899 -6.77563 -60.4791 -76.0931 83.8143 -4.9393 -2.65108 3.79911 -11.8689 -7.85514 -13.2074 -2.40132 0.745361 -4.00853 -4.7002 -5.03825 2.2119 -8.58663 -2.5421 1.49227 4.9448 -37.6831 22.0138 0 3.88717 30.6237 11.2182 67.4665 82.6896 0 0 0 37.9386 28.008 73.698 26.2405 28.4472 13.118 18.2167 29.0248 19.6359 0 22.4358 32.6146 28.1246 -8.63175 30.7051 32.2053 23.7634 -7.83088 26.7354 35.1526 30.0193 0.568258 -0.744118 -0.00738023 0.0240216 -0.592232 0.74416 0 0.579664 -0.744117 -0.00752836 1.70755e-006 -0.579617 0.74416 0 
-0.0999843 -0.0601153 0.0482036 3.93215e-013 5.16947e-008 -5.10949e-006 0 -0 0 0 -0 0 0 -0 0 -0.712785 0.287111 -0 -6.49442 -34.3316 -3.47978 -31.6256 -24.6949 -44.4415 15.4469 21.8899 -6.77563 -60.4791 -76.0931 83.8143 -4.9393 -2.65108 3.79911 -11.8689 -7.85514 -13.2074 -2.40132 0.745361 -4.00853 -4.7002 -5.03825 2.2119 -8.58663 -2.5421 1.49227 4.9448 -37.6831 22.0138 0 3.88717 30.6237 11.2182 67.4665 82.6896 0 0 0 37.9386 28.008 73.698 26.2405 28.4472 13.118 18.2167 29.0248 19.6359 0 22.4358 32.6146 28.1246 -8.63175 30.7051 32.2053 23.7634 -7.83088 26.7354 35.1526 30.0193 0.568258 -0.744118 -0.00738023 0.0240216 -0.592232 0.74416 0 0.579664 -0.744117 -0.00752836 2.41484e-006 -0.579617 0.74416 0 
-0.0999843 -0.0601153 0.0482036 1.36087e-013 5.16947e-008 -5.10949e-006 0 -0 0 0 -0 0 0 -0 0 -0.712785 0.287111 -3.88256e-019 -6.49442 -34.3316 -3.47978 -31.6256 -24.6949 -44.4415 15.4469 21.8899 -6.77563 -60.4791 -76.0931 83.8143 -4.9393 -2.65108 3.79911 -11.8689 -7.85514 -13.2074 -2.40132 0.745361 -4.00853 -4.7002 -5.03825 2.2119 -8.58663 -2.5421 1.49227 4.9448 -37.6831 22.0138 0 3.88717 30.6237 11.2182 67.4665 82.6896 0 0 0 37.9386 28.008 73.698 26.2405 28.4472 13.118 18.2167 29.0248 19.6359 0 22.4358 32.6146 28.1246 -8.63175 30.7051 32.2053 23.7634 -7.83088 26.7354 35.1526 30.0193 0.568258 -0.744118 -0.00738023 0.0240216 -0.592232 0.74416 0 0.579663 -0.744117 -0.00752834 2.24712e-006 -0.579617 0.74416 0 
-0.0999843 -0.0601153 0.0482036 5.53833e-013 5.16947e-008 -5.10949e-006 0 -0 0 0 -0 0 0 -0 0 -0.712785 0.287111 -0 -6.49442 -34.3316 -3.47978 -31.6256 -24.6949 -44.4415 15.4469 21.8899 -6.77563 -60.4791 -76.0931 83.8143 -4.9393 -2.65108 3.79911 -11.8689 -7.85514 -13.2074 -2.40132 0.745361 -4.00853 -4.7002 -5.03825 2.2119 -8.58663 -2.5421 1.49227 4.9448 -37.6831 22.0138 0 3.88717 30.6237 11.2182 67.4665 82.6896 0 0 0 37.9386 28.008 73.698 26.2405 28.4472 13.118 18.2167 29.0248 19.6359 0 22.4358 32.6146 28.1246 -8.63175 30.7051 32.2053 23.7634 -7.83088 26.7354 35.1526 30.0193 0.568258 -0.744118 -0.00738023 0.0240216 -0.592232 0.74416 0 0.579663 -0.744117 -0.00752834 2.29489e-006 -0.579616 0.74416 0 
-0.0999843 -0.0601153 0.0482036 -1.13266e-012 5.16947e-008 -5.10949e-006 0 -0 0 0 -0 0 0 -0 0 -0.712785 0.287111 -3.88256e-019 -6.49442 -34.3316 -3.47978 -31.6256 -24.6949 -44.4415 15.4469 21.8899 -6.77563 -60.4791 -76.0931 83.8143 -4.9393 -2.65108 3.79911 -11.8689 -7.85514 -13.2074 -2.40132 0.745361 -4.00853 -4.7002 -5.03825 2.2119 -8.58663 -2.5421 1.49227 4.9448 -37.6831 22.0138 0 3.88717 30.6237 11.2182 67.4665 82.6896 0 0 0 37.9386 28.008 73.698 26.2405 28.4472 13.118 18.2167 29.0248 19.6359 0 22.4358 32.6146 28.1246 -8.63175 30.7051 32.2053 23.7634 -7.83088 26.7354 35.1526 30.0193 0.568258 -0.744118 -0.00738023 0.0240216 -0.592232 0.74416 0 0.579664 -0.744117 -0.00752836 2.51863e-006 -0.579617 0.74416 0 
-0.0999843 -0.0601153 0.0482036 1.22801e-012 5.16947e-008 -5.10949e-006 0 -0 0 0 -0 0 0 -0 0 -0.712785 0.287111 -3.88256e-019 -6.49442 -34.3316 -3.47978 -31.6256 -24.6949 -44.4415 15.4469 21.8899 -6.77563 -60.4791 -76.0931 83.8143 -4.9393 -2.65108 3.79911 -11.8689 -7.85514 -13.2074 -2.40132 0.745361 -4.00853 -4.7002 -5.03825 2.2119 -8.58663 -2.5421 1.49227 4.9448 -37.6831 22.0138 0 3.88717 30.6237 11.2182 67.4665 82.6896 0 0 0 37.9386 28.008 73.698 26.2405 28.4472 13.118 18.2167 29.0248 19.6359 0 22.4358 32.6146 28.1246 -8.63175 30.7051 32.2053 23.7634 -7.83088 26.7354 35.1526 30.0193 0.568258 -0.744118 -0.00738023 0.0240216 -0.592232 0.74416 0 0.579662 -0.744117 -0.00752833 3.41509e-006 -0.579617 0.74416 0 
-0.0999843 -0.0601153 0.0482036 -1.61526e-012 5.16947e-008 -5.10949e-006 0 -0 0 0 -0 0 0 -0 0 -0.712785 0.287111 -7.76512e-019 -6.49442 -34.3316 -3.47978 -31.6256 -24.6949 -44.4415 15.4469 21.8899 -6.77563 -60.4791 -76.0931 83.8143 -4.9393 -2.65108 3.79911 -11.8689 -7.85514 -13.2074 -2.40132 0.745361 -4.00853 -4.7002 -5.03825 2.2119 -8.58663 -2.5421 1.49227 4.9448 -37.6831 22.0138 0 3.88717 30.6237 11.2182 67.4665 82.6896 0 0 0 37.9386 28.008 73.698 26.2405 28.4472 13.118 18.2167 29.0248 19.6359 0 22.4358 32.6146 28.1246 -8.63175 30.7051 32.2053 23.7634 -7.83088 26.7354 35.1526 30.0193 0.568258 -0.744118 -0.00738023 0.0240216 -0.592232 0.74416 0 0.579663 -0.744117 -0.00752834 2.83165e-006 -0.579616 0.74416 0 
-0.0999843 -0.0601153 0.0482036 5.54302e-014 5.16947e-008 -5.10949e-006 0 -0 0 0 -0 0 0 -0 0 -0.712785 0.287111 -3.88256e-019 -6.49442 -34.3316 -3.47978 -31.6256 -24.6949 -44.4415 15.4469 21.8899 -6.77563 -60.4791 -76.0931 83.8143 -4.9393 -2.65108 3.79911 -11.8689 -7.85514 -13.2074 -2.40132 0.745361 -4.00853 -4.7002 -5.03825 2.2119 -8.58663 -2.5421 1.49227 4.9448 -37.6831 22.0138 0 3.88717 30.6237 11.2182 67.4665 82.6896 0 0 0 37.9386 28.008 73.698 26.2405 28.4472 13.118 18.2167 29.0248 19.6359 0 22.4358 32.6146 28.1246 -8.63175 30.7051 32.2053 23.7634 -7.83088 26.7354 35.1526 30.0193 0.568258 -0.744118 -0.00738023 0.0240216 -0.592232 0.74416 0 0.579664 -0.744117 -0.00752836 2.41484e-006 -0.579617 0.74416 0 
-0.0999843 -0.0601153 0.0482036 -2.09599e-013 5.16947e-008 -5.10949e-006 0 -0 0 0 -0 0 0 -0 0 -0.712785 0.287111 -0 -6.49442 -34.3316 -3.47978 -31.6256 -24.6949 -44.4415 15.4469 21.8899 -6.77563 -60.4791 -76.0931 83.8143 -4.9393 -2.65108 3.79911 -11.8689 -7.85514 -13.2074 -2.40132 0.745361 -4.00853 -4.7002 -5.03825 2.2119 -8.58663 -2.5421 1.49227 4.9448 -37.6831 22.0138 0 3.88717 30.6237 11.2182 67.4665 82.6896 0 0 0 37.9386 28.008 73.698 26.2405 28.4472 13.118 18.2167 29.0248 19.6359 0 22.4358 32.6146 28.1246 -8.63175 30.7051 32.2053 23.7634 -7.83088 26.7354 35.1526 30.0193 0.568258 -0.744118 -0.00738023 0.0240216 -0.592232 0.74416 0 0.579664 -0.744117 -0.00752836 1.70755e-006 -0.579617 0.74416 0 
-0.0999843 -0.0601153 0.0482036 1.05417e-012 5.16947e-008 -5.10949e-006 0 -0 0 0 -0 0 0 -0 0 -0.712785 0.287111 -3.88256e-019 -6.49442 -34.3316 -3.47978 -31.6256 -24.6949 -44.4415 15.4469 21.8899 -6.77563 -60.4791 -76.0931 83.8143 -4.9393 -2.65108 3.79911 -11.8689 -7.85514 -13.2074 -2.40132 0.745361 -4.00853 -4.7002 -5.03825 2.2119 -8.58663 -2.5421 1.49227 4.9448 -37.6831 22.0138 0 3.88717 30.6237 11.2182 67.4665 82.6896 0 0 0 37.9386 28.008 73.698 26.2405 28.4472 13.118 18.2167 29.0248 19.6359 0 22.4358 32.6146 28.1246 -8.63175 30.7051 32.2053 23.7634 -7.83088 26.7354 35.1526 30.0193 0.568258 -0.744118 -0.00738023 0.0240216 -0.592232 0.74416 0 0.579664 -0.744117 -0.00752836 1.29797e-006 -0.579616 0.74416 0 
-0.0999843 -0.0601153 0.0482036 5.96671e-013 5.16947e-008 -5.10949e-006 0 -0 0 0 -0 0 0 -0 0 -0.712785 0.287111 -3.88256e-019 -6.49442 -34.3316 -3.47978 -31.6256 -24.6949 -44.4415 15.4469 21.8899 -6.77563 -60.4791 -76.0931 83.8143 -4.9393 -2.65108 3.79911 -11.8689 -7.85514 -13.2074 -2.40132 0.745361 -4.00853 -4.7002 -5.03825 2.2119 -8.58663 -2.5421 1.49227 4.9448 -37.6831 22.0138 0 3.88717 30.6237 11.2182 67.4665 82.6896 0 0 0 37.9386 28.008 73.698 26.2405 28.4472 13.118 18.2167 29.0248 19.6359 0 22.4358 32.6146 28.1246 -8.63175 30.7051 32.2053 23.7634 -7.83088 26.7354 35.1526 30.0193 0.568258 -0.744118 -0.00738023 0.0240216 -0.592232 0.74416 0 0.579664 -0.744117 -0.00752836 1.11082e-006 -0.579616 0.74416 0 
